# xmcd
#
# Track frame offsets: 
#        182
#        39082
#        59432
#        90557
#        142695
#        177057
#
# Disc length: 2883 seconds
#
# Revision: 1
# Processed by: cddbd v1.5.2PL0 Copyright (c) Steve Scherf et al.
# Submitted via: ExactAudioCopy v0.99pb5
#
DISCID=3d0b4106
DTITLE=Jerzy Erdman - Nowowiejski - Concerto IV op. 56 No. 4, Symphony
DTITLE=IV op. 45 No. 4
DYEAR=1995
DGENRE=Organ
TTITLE0=Concerto, organ, no. 04   Maestoso. Solennelle  Op. 56  No. 4 
TTITLE1=Concerto, organ, no. 04   Andantino. Scherzando  Op. 56  No. 4
TTITLE1=
TTITLE2=Concerto, organ, no. 04   Finale. Tranquillo e misterioso  Op.
TTITLE2=56  No. 4 
TTITLE3=Symphony, organ, no. 04   Introduzione. Allegro moderato  Op. 
TTITLE3=45  No. 4
TTITLE4=Symphony, organ, no. 04   Consolatrix afflictorum  Op. 45  No.
TTITLE4=4
TTITLE5=Symphony, organ, no. 04   Toccata  Op. 45  No. 4
EXTD=
EXTT0=
EXTT1=
EXTT2=
EXTT3=
EXTT4=
EXTT5=
PLAYORDER=
